<svg width="290" height="64" fill="none" xmlns="http://www.w3.org/2000/svg"><path d="M281.318 38.241 264.236 12.88h-10.204v38.24h8.682V25.647l17.364 25.475H290V12.88h-8.682V38.24ZM168.791 26.043l-8.682-13.163h-11.107l15.504 22.638V51.12h8.626V35.518l15.447-22.638h-11.107l-8.681 13.163ZM243.884 12.88h-8.682v38.24h8.682V12.88ZM132.935 12.88l-8.738 13.163-8.682-13.163h-10.881l.057.056v38.185h8.738V25.759l10.881 16 10.993-16.113V51.12h8.682V12.88h-11.05ZM0 0l34.84.057 8.664 12.88-17.325 25.498L0 0Z" fill="#14509C"/><path d="M52.374.057 87.214 0 43.58 64 26.046 38.241 52.374.057Z" fill="#FF7300"/><path d="M204.364 20.199h17.984l4.961-7.263v-.056H195.682V51.12h8.682V35.177h16.349v-7.319h-16.349v-7.66Z" fill="#14509C"/></svg>